 
<svg width="100%" height="100%" viewBox="0 0 100 100" fill="none" xmlns="http://www.w3.org/2000/svg">
    <mask id="mask__small-dot" maskUnits="userSpaceOnUse" x="0" y="0" width="100" height="100">
        <path d="M0 0L0 100L100 100L100 0Z" fill="white" />
        <path d="M0 0L0 50L50 50L50 0ZM0 50L0 100L50 100L50 50ZM50 0L50 50L100 50L100 0ZM50 50L50 100L100 100L100 50Z" fill="black" />
    </mask>
    <g mask="url(#mask__small-dot)">
        <rect width="100%" height="100%" fill="#4C51BF" />
        <circle cx="50%" cy="50%" r="10" fill="url(#paint0_linear)" />
        <circle cx="50%" cy="50%" r="20" fill="url(#paint1_linear)" />
        <circle cx="50%" cy="50%" r="30" fill="url(#paint2_linear)" />
        <circle cx="50%" cy="50%" r="40" fill="url(#paint3_linear)" />
    </g>
    <defs>
        <linearGradient id="paint0_linear" x1="50%" y1="50%" x2="50%" y2="100%" gradientUnits="userSpaceOnUse">
            <stop stop-color="#4C51BF" />
            <stop offset="1" stop-color="#4C51BF" stop-opacity="0" />
        </linearGradient>
        <linearGradient id="paint1_linear" x1="50%" y1="50%" x2="50%" y2="100%" gradientUnits="userSpaceOnUse">
            <stop stop-color="#4C51BF" />
            <stop offset="1" stop-color="#4C51BF" stop-opacity="0" />
        </linearGradient>
        <linearGradient id="paint2_linear" x1="50%" y1="50%" x2="50%" y2="100%" gradientUnits="userSpaceOnUse">
            <stop stop-color="#4C51BF" />
            <stop offset="1" stop-color="#4C51BF" stop-opacity="0" />
        </linearGradient>
        <linearGradient id="paint3_linear" x1="50%" y1="50%" x2="50%" y2="100%" gradientUnits="userSpaceOnUse">
            <stop stop-color="#4C51BF" />
            <stop offset="1" stop-color="#4C51BF" stop-opacity="0" />
        </linearGradient>
    </defs>
</svg>
